<?xml version="1.0" encoding="UTF-8" standalone="no"?>
<!DOCTYPE svg PUBLIC "-//W3C//DTD SVG 20010904//EN"
              "http://www.w3.org/TR/2001/REC-SVG-20010904/DTD/svg10.dtd">

<svg xmlns="http://www.w3.org/2000/svg"
     width="3.33333in" height="3.33333in"
     viewBox="0 0 1000 1000">
  <path id="Selection"
        fill="black"  stroke-width="1"
        d="M 0.00,0.00
           C 0.00,0.00 1000.00,0.00 1000.00,0.00
             1000.00,0.00 1000.00,1000.00 1000.00,1000.00
             1000.00,1000.00 0.00,1000.00 0.00,1000.00
             0.00,1000.00 0.00,0.00 0.00,0.00 Z
           M 734.00,526.00
           C 734.00,526.00 357.00,526.00 357.00,526.00
             357.00,526.00 357.00,545.00 357.00,545.00
             357.03,565.00 364.98,590.88 373.31,609.00
             379.07,621.54 389.10,636.40 397.92,647.00
             413.90,666.21 433.73,681.11 456.00,692.25
             527.58,728.04 617.09,717.94 677.00,663.83
             705.82,637.80 725.74,601.29 732.08,563.00
             733.10,556.85 733.99,551.26 734.00,545.00
             734.00,545.00 734.00,526.00 734.00,526.00 Z" />
           
</svg>
