<?xml version="1.0" encoding="UTF-8" standalone="no"?>
<!DOCTYPE svg PUBLIC "-//W3C//DTD SVG 20010904//EN"
              "http://www.w3.org/TR/2001/REC-SVG-20010904/DTD/svg10.dtd">

<svg xmlns="http://www.w3.org/2000/svg"
     width="6.4in" height="3.6in"
     viewBox="0 0 1920 1080">
  <path id="Selection"
        fill="none" stroke="black" stroke-width="1"
        d="M 525.00,524.00
           C 525.00,524.00 1416.00,524.00 1416.00,524.00
             1416.00,524.00 1413.58,541.00 1413.58,541.00
             1413.58,541.00 1406.57,573.00 1406.57,573.00
             1396.27,609.11 1376.93,643.77 1353.55,673.00
             1309.78,727.71 1247.61,767.96 1183.00,793.80
             1142.56,809.98 1100.09,821.06 1057.00,827.27
             1057.00,827.27 1009.00,832.09 1009.00,832.09
             1009.00,832.09 997.00,833.00 997.00,833.00
             997.00,833.00 942.00,833.00 942.00,833.00
             942.00,833.00 932.00,832.09 932.00,832.09
             932.00,832.09 908.00,830.17 908.00,830.17
             860.54,825.42 813.72,814.72 769.00,798.05
             693.49,769.90 621.36,722.73 574.72,656.00
             557.49,631.34 542.12,601.10 534.15,572.00
             534.15,572.00 527.42,541.00 527.42,541.00
             527.42,541.00 525.00,524.00 525.00,524.00 Z" />
</svg>
